# xmcd
#
# Track frame offsets:
#	150
#	15084
#	30018
#
# Disc length: 597 seconds
#
# Revision: 1
# Processed by: cddbd v1.5.2PL0 Copyright (c) Steve Scherf et al.
# Submitted via: audiograbber 1.83.01
#
DISCID=09025303
DTITLE=devone matthews - Single
DYEAR=2011
DGENRE=soca
TTITLE0=tern me on
TTITLE1=tern me on (instrumental)
TTITLE2=tern me on (tv track)
EXTD=
EXTT0=
EXTT1=
EXTT2=
PLAYORDER=
